HIERARCHY
ROOT Hips
{
  OFFSET 5.72205e-005 65.662 3.42586
  CHANNELS 6 Xposition Yposition Zposition Zrotation Xrotation Yrotation
  JOINT Chest
  {
    OFFSET 0 8.7983 -4.7612
    CHANNELS 3 Zrotation Xrotation Yrotation
    JOINT Chest2
    {
      OFFSET 0 8.0291 0.4195
      CHANNELS 3 Zrotation Xrotation Yrotation
      JOINT Chest3
      {
        OFFSET 0 9.9351 -2.2114
        CHANNELS 3 Zrotation Xrotation Yrotation
        JOINT Neck
        {
          OFFSET 0 22.3885 -0.4656
          CHANNELS 3 Zrotation Xrotation Yrotation
          JOINT Head
          {
            OFFSET -0.0001 12.643 3.4389
            CHANNELS 3 Zrotation Xrotation Yrotation
            End Site
            {
              OFFSET 0.0001 17.6655 0.5274
            }
          }
        }
        JOINT LeftCollar
        {
          OFFSET 2.2603 21.606 7.4023
          CHANNELS 3 Zrotation Xrotation Yrotation
          JOINT LeftShoulder
          {
            OFFSET 13.5163 -1.1332 -5.0146
            CHANNELS 3 Zrotation Xrotation Yrotation
            JOINT LeftElbow
            {
              OFFSET -0.0995 -28.05 -0.2431
              CHANNELS 3 Zrotation Xrotation Yrotation
              JOINT LeftWrist
              {
                OFFSET 0.0679 -23.3996 -0.1402
                CHANNELS 3 Zrotation Xrotation Yrotation
                JOINT LeftFinger1
                {
                  OFFSET 0.7932 -9.069 2.5189
                  CHANNELS 3 Zrotation Xrotation Yrotation
                  JOINT LeftFinger11
                  {
                    OFFSET -0.8272 -3.3923 0.5977
                    CHANNELS 3 Zrotation Xrotation Yrotation
                    JOINT LeftFinger12
                    {
                      OFFSET -0.5649 -2.3158 0.4082
                      CHANNELS 3 Zrotation Xrotation Yrotation
                      End Site
                      {
                        OFFSET -0.4919 -1.6479 0.2673
                      }
                    }
                  }
                }
                JOINT LeftFinger2
                {
                  OFFSET 0.9159 -9.2044 0.2193
                  CHANNELS 3 Zrotation Xrotation Yrotation
                  JOINT LeftFinger21
                  {
                    OFFSET 0.0117 -4.1944 -0.0248
                    CHANNELS 3 Zrotation Xrotation Yrotation
                    JOINT LeftFinger22
                    {
                      OFFSET 0.0071 -2.3249 -0.0142
                      CHANNELS 3 Zrotation Xrotation Yrotation
                      End Site
                      {
                        OFFSET -0.1475 -2.0882 0.0028
                      }
                    }
                  }
                }
                JOINT LeftFinger3
                {
                  OFFSET 0.6113 -8.7231 -2.0637
                  CHANNELS 3 Zrotation Xrotation Yrotation
                  JOINT LeftFinger31
                  {
                    OFFSET -0.1927 -3.8059 -0.2383
                    CHANNELS 3 Zrotation Xrotation Yrotation
                    JOINT LeftFinger32
                    {
                      OFFSET -0.1091 -2.1688 -0.1362
                      CHANNELS 3 Zrotation Xrotation Yrotation
                      End Site
                      {
                        OFFSET -0.2358 -1.9176 -0.0906
                      }
                    }
                  }
                }
                JOINT LeftFinger4
                {
                  OFFSET -0.6151 -8.0947 -3.5641
                  CHANNELS 3 Zrotation Xrotation Yrotation
                  JOINT LeftFinger41
                  {
                    OFFSET -0.4882 -2.341 -0.6462
                    CHANNELS 3 Zrotation Xrotation Yrotation
                    JOINT LeftFinger42
                    {
                      OFFSET -0.3575 -1.7167 -0.4742
                      CHANNELS 3 Zrotation Xrotation Yrotation
                      End Site
                      {
                        OFFSET -0.4187 -1.5237 -0.3496
                      }
                    }
                  }
                }
                JOINT LeftFinger0
                {
                  OFFSET -1.42 -1.8761 1.4223
                  CHANNELS 3 Zrotation Xrotation Yrotation
                  JOINT LeftFinger01
                  {
                    OFFSET -1.1471 -3.4929 2.6334
                    CHANNELS 3 Zrotation Xrotation Yrotation
                    JOINT LeftFinger02
                    {
                      OFFSET -0.823 -2.3 1.6571
                      CHANNELS 3 Zrotation Xrotation Yrotation
                      End Site
                      {
                        OFFSET -0.5822 -1.6914 1.1582
                      }
                    }
                  }
                }
              }
            }
          }
        }
        JOINT RightCollar
        {
          OFFSET -2.2603 21.606 7.4023
          CHANNELS 3 Zrotation Xrotation Yrotation
          JOINT RightShoulder
          {
            OFFSET -13.5187 -1.1334 -5.0155
            CHANNELS 3 Zrotation Xrotation Yrotation
            JOINT RightElbow
            {
              OFFSET 0.0994 -28.0499 -0.2431
              CHANNELS 3 Zrotation Xrotation Yrotation
              JOINT RightWrist
              {
                OFFSET -0.0679 -23.3996 -0.1402
                CHANNELS 3 Zrotation Xrotation Yrotation
                JOINT RightFinger1
                {
                  OFFSET -0.7932 -9.0691 2.5189
                  CHANNELS 3 Zrotation Xrotation Yrotation
                  JOINT RightFinger11
                  {
                    OFFSET 0.8272 -3.3923 0.5977
                    CHANNELS 3 Zrotation Xrotation Yrotation
                    JOINT RightFinger12
                    {
                      OFFSET 0.565 -2.3158 0.4082
                      CHANNELS 3 Zrotation Xrotation Yrotation
                      End Site
                      {
                        OFFSET 0.4919 -1.6479 0.2673
                      }
                    }
                  }
                }
                JOINT RightFinger2
                {
                  OFFSET -0.916 -9.2044 0.2193
                  CHANNELS 3 Zrotation Xrotation Yrotation
                  JOINT RightFinger21
                  {
                    OFFSET -0.0117 -4.1944 -0.0248
                    CHANNELS 3 Zrotation Xrotation Yrotation
                    JOINT RightFinger22
                    {
                      OFFSET -0.0071 -2.3249 -0.0142
                      CHANNELS 3 Zrotation Xrotation Yrotation
                      End Site
                      {
                        OFFSET 0.1475 -2.0882 0.0028
                      }
                    }
                  }
                }
                JOINT RightFinger3
                {
                  OFFSET -0.6113 -8.7231 -2.0637
                  CHANNELS 3 Zrotation Xrotation Yrotation
                  JOINT RightFinger31
                  {
                    OFFSET 0.1927 -3.8059 -0.2383
                    CHANNELS 3 Zrotation Xrotation Yrotation
                    JOINT RightFinger32
                    {
                      OFFSET 0.1091 -2.1688 -0.1362
                      CHANNELS 3 Zrotation Xrotation Yrotation
                      End Site
                      {
                        OFFSET 0.2358 -1.9176 -0.0906
                      }
                    }
                  }
                }
                JOINT RightFinger4
                {
                  OFFSET 0.6151 -8.0947 -3.564
                  CHANNELS 3 Zrotation Xrotation Yrotation
                  JOINT RightFinger41
                  {
                    OFFSET 0.4882 -2.341 -0.6462
                    CHANNELS 3 Zrotation Xrotation Yrotation
                    JOINT RightFinger42
                    {
                      OFFSET 0.3574 -1.7166 -0.4742
                      CHANNELS 3 Zrotation Xrotation Yrotation
                      End Site
                      {
                        OFFSET 0.4187 -1.5237 -0.3496
                      }
                    }
                  }
                }
                JOINT RightFinger0
                {
                  OFFSET 1.4199 -1.8761 1.4221
                  CHANNELS 3 Zrotation Xrotation Yrotation
                  JOINT RightFinger01
                  {
                    OFFSET 1.1472 -3.4929 2.6336
                    CHANNELS 3 Zrotation Xrotation Yrotation
                    JOINT RightFinger02
                    {
                      OFFSET 0.8229 -2.3 1.6571
                      CHANNELS 3 Zrotation Xrotation Yrotation
                      End Site
                      {
                        OFFSET 0.5822 -1.6914 1.1582
                      }
                    }
                  }
                }
              }
            }
          }
        }
      }
    }
  }
  JOINT RightHip
  {
    OFFSET -9.412 3.9771 -0.7758
    CHANNELS 3 Zrotation Xrotation Yrotation
    JOINT RightKnee
    {
      OFFSET -0.7531 -40.938 0
      CHANNELS 3 Zrotation Xrotation Yrotation
      JOINT RightAnkle
      {
        OFFSET 0 -40.1986 0
        CHANNELS 3 Zrotation Xrotation Yrotation
        JOINT RightToe
        {
          OFFSET 0 -4.4182 9.239
          CHANNELS 3 Zrotation Xrotation Yrotation
          End Site
          {
            OFFSET 0 0 6.1981
          }
        }
      }
    }
  }
  JOINT LeftHip
  {
    OFFSET 9.4119 3.9773 -0.7758
    CHANNELS 3 Zrotation Xrotation Yrotation
    JOINT LeftKnee
    {
      OFFSET 0.7532 -40.9383 0
      CHANNELS 3 Zrotation Xrotation Yrotation
      JOINT LeftAnkle
      {
        OFFSET 0 -40.1986 0
        CHANNELS 3 Zrotation Xrotation Yrotation
        JOINT LeftToe
        {
          OFFSET 0 -4.4182 9.239
          CHANNELS 3 Zrotation Xrotation Yrotation
          End Site
          {
            OFFSET 0 0 6.1981
          }
        }
      }
    }
  }
}
MOTION
Frames:	6
Frame Time:	0.0333333
5.72205e-005 65.662 3.42586 0 0 -0 0 0 -0 0 0 -0 0 0 -0 0 0 -0 0 0 -0 0 0 -12.5014 88.1196 14.2451 10.6914 -0.00160068 -0.00239207 0.000740045 -8.4365e-005 7.00714e-005 -9.52055e-007 9.93923e-017 -1.98785e-016 -1.59028e-015 9.93923e-017 -5.96354e-016 -1.59028e-015 -9.93923e-017 -5.96354e-016 -1.59028e-015 9.93923e-017 -1.98785e-016 -1.59028e-015 -0.0128176 0.00232552 8.52707e-005 9.93923e-017 5.96354e-016 -0 9.93923e-017 -1.98785e-016 -1.59028e-015 -0.0160551 0.00299681 0.000857156 -2.48481e-016 0 3.18055e-015 9.93923e-017 -1.98785e-016 -1.59028e-015 -0.0125865 0.0031206 0.00282719 0 1.98785e-016 -0 9.93923e-017 -1.98785e-016 -1.59028e-015 9.93923e-017 -5.96354e-016 -1.59028e-015 -9.93923e-017 -5.96354e-016 -1.59028e-015 -0.865644 0.16582 7.03859 -88.0329 10.2057 -10.5567 0.0015593 -0.00248883 -0.000788628 7.87605e-005 4.10553e-005 1.24965e-005 -3.97569e-016 -7.95139e-016 3.18055e-015 -1.98785e-016 -3.97569e-016 3.18055e-015 -1.98785e-016 0 3.18055e-015 -3.97569e-016 -7.95139e-016 3.18055e-015 0.0129473 0.00231697 -8.70038e-005 9.93923e-017 -7.95139e-016 1.59028e-015 -3.97569e-016 -7.95139e-016 3.18055e-015 0.0163314 0.00303369 -0.000872333 3.97569e-016 7.95139e-016 -3.18055e-015 -3.97569e-016 -7.95139e-016 3.18055e-015 0.0145763 0.00367772 -0.00326275 9.93923e-017 -3.97569e-016 -0 -3.97569e-016 -7.95139e-016 3.18055e-015 -1.98785e-016 -3.97569e-016 3.18055e-015 -1.98785e-016 0 3.18055e-015 3.42482 1.32465 -0.0626183 0.000117508 0.717283 0.000978199 -3.4257 -2.04197 -0.0604716 6.47761e-025 0 -0 -3.42483 1.34017 0.0627307 -0.000193936 0.682302 -0.0013703 3.42574 -2.02253 0.0595886 -8.45714e-024 0 -7.40531e-025 
-2.86315 0.182419 11.1246 -5.52494e-015 12.0025 180 -0.416709 5.63723 0.168686 -0.856457 11.273 0.381593 -0.85646 11.2731 0.381595 3.61395e-006 -0.236105 -1.33189e-006 0.0996647 -0.180088 0.000156389 -16.2712 -44.605 -0.98665 43.5871 3.90774 12.8714 -97.8306 -11.3537 -52.4921 36.5578 0.599741 -27.3882 -3.18055e-015 1.59028e-015 -2.98177e-015 0 0 -2.98177e-015 -0 0 1.98785e-016 -3.18055e-015 1.59028e-015 -2.98177e-015 -0.0128203 0.00233011 8.0079e-005 -2.99629e-006 -1.17499e-005 2.95088e-006 -3.18055e-015 1.59028e-015 -2.98177e-015 -0.0160349 0.00299493 0.000859853 -3.18055e-015 -7.95139e-016 1.98785e-015 -3.18055e-015 1.59028e-015 -2.98177e-015 -0.0126031 0.00312733 0.00282497 2.79451e-006 -7.96123e-006 -1.19385e-005 -3.18055e-015 1.59028e-015 -2.98177e-015 0 0 -2.98177e-015 -0 0 1.98785e-016 -4.79693 -43.0585 -16.4535 -44.3609 0.295493 -9.31565 79.8765 -12.6954 48.9855 -20.7716 -15.8071 4.14676 -1.11536e-006 -5.55636e-007 -3.25138e-006 -4.77083e-015 2.38542e-015 -1.98785e-015 2.77245e-006 -2.32122e-007 -1.33106e-006 -1.11536e-006 -5.55636e-007 -3.25138e-006 0.0129462 0.00232127 -8.66961e-005 1.94004e-006 -5.01332e-007 -1.40464e-006 -1.11536e-006 -5.55636e-007 -3.25138e-006 0.0163355 0.00303421 -0.000881056 4.43751e-006 -4.96279e-007 -1.18351e-006 -1.11536e-006 -5.55636e-007 -3.25138e-006 0.0145567 0.00366761 -0.00325669 1.59028e-015 3.18055e-015 2.98177e-015 -1.11536e-006 -5.55636e-007 -3.25138e-006 -4.77083e-015 2.38542e-015 -1.98785e-015 2.77245e-006 -2.32122e-007 -1.33106e-006 -93.6808 -37.1972 -151.184 -172.894 52.9165 168.393 27.1326 24.3376 -4.74193 2.36992e-008 1.76866e-006 -8.28836e-007 96.7715 -27.4077 150.16 172.78 53.524 -168.289 -27.179 35.3523 5.6009 -2.98177e-016 0 -0 
-2.86428 0.232979 10.8731 -5.43984e-015 12.6657 180 -0.418869 5.42891 0.163921 -0.859251 10.8565 0.37043 -0.859253 10.8565 0.370431 -2.87449e-006 -0.235428 9.09086e-007 0.099416 -0.179648 0.000155415 -16.3106 -43.7865 -0.523885 43.5871 3.90778 12.8714 -97.2912 -11.3947 -52.3557 36.1548 1.05189 -27.4174 5.12948e-006 1.16299e-006 -5.72787e-006 -1.59028e-015 7.95139e-016 -6.75868e-015 -3.18055e-015 0 2.38542e-015 5.12948e-006 1.16299e-006 -5.72787e-006 -0.0128311 0.00232031 8.79839e-005 -1.59028e-015 -2.38542e-015 3.08116e-015 5.12948e-006 1.16299e-006 -5.72787e-006 -0.0160567 0.00300092 0.000864159 -9.37061e-007 -2.33363e-006 -4.54883e-006 5.12948e-006 1.16299e-006 -5.72787e-006 -0.0125875 0.00310411 0.00282324 1.10348e-032 -3.18055e-015 1.98785e-016 5.12948e-006 1.16299e-006 -5.72787e-006 -1.59028e-015 7.95139e-016 -6.75868e-015 -3.18055e-015 0 2.38542e-015 -3.9988 -42.4449 -16.26 -44.6324 0.388881 -9.3202 79.4181 -12.7201 48.8608 -20.0629 -15.2001 4.59076 -3.18055e-015 -7.95139e-016 -5.96354e-016 5.55649e-006 6.6336e-008 2.06851e-006 -4.77083e-015 7.95139e-016 3.57812e-015 -3.18055e-015 -7.95139e-016 -5.96354e-016 0.0129347 0.00231589 -7.66453e-005 1.59028e-015 7.95139e-016 -1.98785e-015 -3.18055e-015 -7.95139e-016 -5.96354e-016 0.0163567 0.00304228 -0.000878339 -6.36111e-015 2.38542e-015 -1.19271e-015 -3.18055e-015 -7.95139e-016 -5.96354e-016 0.014625 0.00369427 -0.00327457 -1.59028e-015 3.97569e-015 -2.5842e-015 -3.18055e-015 -7.95139e-016 -5.96354e-016 5.55649e-006 6.6336e-008 2.06851e-006 -4.77083e-015 7.95139e-016 3.57812e-015 -93.1008 -37.1058 -150.248 -172.894 52.6305 168.361 27.0238 24.2224 -4.46915 1.36323e-005 4.20872e-006 5.55417e-007 96.3483 -27.2738 149.326 172.784 53.2398 -168.259 -26.9486 35.2994 5.2739 -4.73311e-008 8.85778e-007 1.65772e-006 
-2.8654 0.284737 10.6218 -5.35392e-015 13.3318 180 -0.421035 5.21965 0.159143 -0.862098 10.438 0.359236 -0.862101 10.438 0.359238 1.96656e-006 -0.234902 -9.75413e-007 0.0991642 -0.179187 0.000155012 -16.3586 -42.9676 -0.0661167 43.5871 3.90778 12.8714 -96.7514 -11.4345 -52.2187 35.7517 1.50433 -27.4436 6.40386e-006 -2.10841e-007 1.98208e-006 -3.18055e-015 -7.95139e-016 -9.93923e-017 -3.18055e-015 -1.98785e-015 3.18055e-015 6.40386e-006 -2.10841e-007 1.98208e-006 -0.0128253 0.00233354 8.80638e-005 4.06393e-006 1.0402e-006 -4.46535e-006 6.40386e-006 -2.10841e-007 1.98208e-006 -0.0160701 0.00300219 0.000855647 -3.18055e-015 0 3.97569e-015 6.40386e-006 -2.10841e-007 1.98208e-006 -0.0125937 0.00312712 0.00282032 3.18055e-015 3.97569e-016 1.98785e-016 6.40386e-006 -2.10841e-007 1.98208e-006 -3.18055e-015 -7.95139e-016 -9.93923e-017 -3.18055e-015 -1.98785e-015 3.18055e-015 -3.21036 -41.8289 -16.0796 -44.9023 0.48473 -9.32432 78.9589 -12.7443 48.7385 -19.3601 -14.5873 5.02627 -1.59028e-015 7.95139e-016 1.59028e-015 1.59028e-015 1.59028e-015 -1.39149e-015 1.59028e-015 -7.95139e-016 1.78906e-015 -1.59028e-015 7.95139e-016 1.59028e-015 0.0129439 0.00231843 -9.26954e-005 3.18055e-015 1.59028e-015 5.96354e-016 -1.59028e-015 7.95139e-016 1.59028e-015 0.0163712 0.00304496 -0.000868978 3.18055e-015 0 2.18663e-015 -1.59028e-015 7.95139e-016 1.59028e-015 0.0145947 0.00368798 -0.00326808 -3.56424e-006 2.24327e-006 -3.24753e-006 -1.59028e-015 7.95139e-016 1.59028e-015 1.59028e-015 1.59028e-015 -1.39149e-015 1.59028e-015 -7.95139e-016 1.78906e-015 -92.5229 -37.0064 -149.314 -172.895 52.3446 168.329 26.9156 24.1065 -4.19694 2.3658e-008 -1.31764e-006 -8.28812e-007 95.9274 -27.1339 148.494 172.787 52.9554 -168.229 -26.7186 35.2452 4.94732 -4.71246e-008 8.84786e-007 1.65769e-006 
-2.86648 0.337341 10.3713 -5.26748e-015 13.9982 180 -0.423197 5.00951 0.154351 -0.86499 10.0177 0.348015 -0.864991 10.0178 0.348015 -7.19512e-006 -0.23419 2.39667e-006 0.0989147 -0.178741 0.000154585 -16.4148 -42.148 0.387141 43.5871 3.90778 12.8714 -96.2113 -11.4729 -52.0812 35.3486 1.9571 -27.4665 -7.13177e-007 2.39119e-006 4.44373e-006 -4.05534e-006 9.51304e-006 4.47204e-006 -5.10691e-006 -2.4315e-006 -4.80389e-006 -7.13177e-007 2.39119e-006 4.44373e-006 -0.0128116 0.00232975 0.000103826 -2.73759e-006 -2.82736e-007 1.40482e-006 -7.13177e-007 2.39119e-006 4.44373e-006 -0.0160481 0.00300254 0.000869635 2.49416e-006 8.345e-008 1.5449e-007 -7.13177e-007 2.39119e-006 4.44373e-006 -0.0125672 0.00311983 0.00282542 7.06383e-007 2.06082e-006 6.10591e-006 -7.13177e-007 2.39119e-006 4.44373e-006 -4.05534e-006 9.51304e-006 4.47204e-006 -5.10691e-006 -2.4315e-006 -4.80389e-006 -2.43129 -41.2104 -15.9121 -45.1722 0.580651 -9.32797 78.4995 -12.7675 48.6159 -18.6635 -13.9689 5.45326 1.59028e-015 0 -1.59028e-015 -5.51738e-031 -3.97569e-015 -7.95139e-015 -2.64834e-031 -3.18055e-015 -4.77083e-015 1.59028e-015 0 -1.59028e-015 0.0129514 0.00232318 -8.44605e-005 1.59028e-015 -3.97569e-015 -5.96354e-016 1.59028e-015 0 -1.59028e-015 0.0163203 0.00304034 -0.000877342 3.18055e-015 0 1.78906e-015 1.59028e-015 0 -1.59028e-015 0.0146058 0.00368542 -0.00327095 -3.18055e-015 0 1.59028e-015 1.59028e-015 0 -1.59028e-015 -5.51738e-031 -3.97569e-015 -7.95139e-015 -2.64834e-031 -3.18055e-015 -4.77083e-015 -91.9474 -36.899 -148.382 -172.896 52.0585 168.297 26.808 23.9898 -3.92529 4.96962e-016 1.98785e-016 -4.77083e-015 95.509 -26.9883 147.664 172.791 52.6709 -168.198 -26.489 35.1897 4.62136 -2.34708e-008 2.20959e-006 8.28832e-007 
-2.86755 0.390808 10.1214 -5.1805e-015 14.6649 180 -0.425361 4.79868 0.14955 -0.867935 9.5961 0.336775 -0.867937 9.59612 0.336776 -1.63444e-006 -0.233657 7.57991e-007 0.0986652 -0.178292 0.00015323 -16.479 -41.3282 0.836011 43.5872 3.90768 12.8714 -95.6709 -11.5101 -51.943 34.9454 2.41006 -27.4864 -3.18055e-015 3.18055e-015 -1.98785e-015 -1.59028e-015 3.57812e-015 3.67752e-015 -4.77083e-015 1.98785e-015 2.48481e-015 -3.18055e-015 3.18055e-015 -1.98785e-015 -0.0128186 0.00232922 9.1875e-005 -3.18055e-015 -1.15295e-014 4.96962e-016 -3.18055e-015 3.18055e-015 -1.98785e-015 -0.0160371 0.00300758 0.000863936 1.59028e-015 -1.19271e-015 -1.19271e-015 -3.18055e-015 3.18055e-015 -1.98785e-015 -0.0125889 0.00312629 0.00283051 1.59028e-015 -1.31198e-014 4.17448e-015 -3.18055e-015 3.18055e-015 -1.98785e-015 -1.59028e-015 3.57812e-015 3.67752e-015 -4.77083e-015 1.98785e-015 2.48481e-015 -1.66126 -40.5899 -15.7571 -45.442 0.676846 -9.33122 78.0398 -12.7899 48.4933 -17.9729 -13.3449 5.8717 3.18055e-015 -2.38542e-015 3.18055e-015 1.59028e-015 -7.95139e-016 3.18055e-015 4.77083e-015 -7.95139e-016 -3.37934e-015 3.18055e-015 -2.38542e-015 3.18055e-015 0.012945 0.00230328 -8.72514e-005 -1.71963e-006 8.56425e-006 4.35465e-006 3.18055e-015 -2.38542e-015 3.18055e-015 0.0163431 0.00303376 -0.000858267 3.18055e-015 -7.95139e-016 1.78906e-015 3.18055e-015 -2.38542e-015 3.18055e-015 0.014541 0.00366563 -0.00324864 1.59028e-015 2.38542e-015 3.97569e-015 3.18055e-015 -2.38542e-015 3.18055e-015 1.59028e-015 -7.95139e-016 3.18055e-015 4.77083e-015 -7.95139e-016 -3.37934e-015 -91.3747 -36.7836 -147.454 -172.897 51.7722 168.264 26.7009 23.8723 -3.65428 2.36202e-008 -4.32812e-007 -8.288e-007 95.0933 -26.8366 146.837 172.794 52.3862 -168.168 -26.2598 35.1329 4.29593 -1.3418e-015 -1.31863e-006 3.18055e-015 
